<svg xmlns="http://www.w3.org/2000/svg" viewBox="0 0 400 400" width="400" height="400">
    <ellipse cx="200" cy="352" rx="92" ry="10" fill="#000" opacity="0.12"/>
    <path d="M150 350l12-100h76l12 100Z" fill="#2c3035" stroke="#1f2328" stroke-width="4.5" stroke-linejoin="round" stroke-linecap="round"/>
    <path d="M176 350l4-100h40l4 100Z" fill="#3a3e44"/>
    <path d="M150 350l12-100h76l12 100Z" fill="none" stroke="#1f2328" stroke-width="4.5" stroke-linejoin="round" stroke-linecap="round"/>
    <rect x="156" y="238" width="88" height="14" rx="3" fill="#a3a9af" stroke="#1f2328" stroke-width="4.5" stroke-linejoin="round" stroke-linecap="round"/>
    <path d="M160 238l-14-124h108l-14 124Z" fill="#c3c8cd" stroke="#1f2328" stroke-width="4.5" stroke-linejoin="round" stroke-linecap="round"/>
    <path d="M186 238l-4-124h36l-4 124Z" fill="#e3e6e9"/>
    <path d="M160 238l-14-124h108l-14 124Z" fill="none" stroke="#1f2328" stroke-width="4.5" stroke-linejoin="round" stroke-linecap="round"/>
    <path d="M146 114l-22-8 26-6Z" fill="#c3c8cd" stroke="#1f2328" stroke-width="4.5" stroke-linejoin="round" stroke-linecap="round"/>
    <path d="M144 104q56-30 112 0Z" fill="#c3c8cd" stroke="#1f2328" stroke-width="4.5" stroke-linejoin="round" stroke-linecap="round"/>
    <rect x="190" y="72" width="20" height="18" rx="6" fill="#2c3035" stroke="#1f2328" stroke-width="4.5" stroke-linejoin="round" stroke-linecap="round"/>
    <circle cx="200" cy="140" r="12" fill="#2c3035" stroke="#1f2328" stroke-width="4.5" stroke-linejoin="round" stroke-linecap="round"/>
    <path d="M252 124q48 6 40 58t-44 58" fill="none" stroke="#2c3035" stroke-width="18" stroke-linecap="round"/>
    <path d="M252 124q48 6 40 58t-44 58" fill="none" stroke="#1f2328" stroke-width="2" stroke-linejoin="round" stroke-linecap="round"/></svg>
