<svg xmlns="http://www.w3.org/2000/svg" viewBox="0 0 400 400" width="400" height="400">
    <ellipse cx="200" cy="352" rx="120" ry="10" fill="#000" opacity="0.12"/>
    <path d="M280 108q56 0 56 70v150" fill="none" stroke="#dde1e2" stroke-width="14" stroke-linecap="round"/>
    <path d="M280 108q56 0 56 70v150" fill="none" stroke="#1f2328" stroke-width="2" stroke-linejoin="round" stroke-linecap="round"/>
    <rect x="112" y="186" width="176" height="160" rx="10" fill="#f5f6f5" stroke="#1f2328" stroke-width="4.5" stroke-linejoin="round" stroke-linecap="round"/>
    <path d="M112 186h176v54h-176Z" fill="#dde1e2" stroke="#1f2328" stroke-width="4.5" stroke-linejoin="round" stroke-linecap="round"/>
    <rect x="130" y="204" width="60" height="8" rx="4" fill="#9aa1a8"/>
    <rect x="122" y="54" width="160" height="126" rx="8" fill="#f5f6f5" stroke="#1f2328" stroke-width="4.5" stroke-linejoin="round" stroke-linecap="round"/>
    <circle cx="190" cy="118" r="46" fill="#dfe6ec" stroke="#1f2328" stroke-width="4.5" stroke-linejoin="round" stroke-linecap="round"/>
    <path d="M190 72v92M144 118h92M158 86l64 64M222 86l-64 64" stroke="#6a8fb5" stroke-width="5"/>
    <circle cx="190" cy="118" r="12" fill="#4d6e91" stroke="#1f2328" stroke-width="4.5" stroke-linejoin="round" stroke-linecap="round"/>
    <path d="M250 70v96" stroke="#dde1e2" stroke-width="16"/>
    <rect x="112" y="340" width="176" height="8" fill="#dde1e2"/></svg>
